<?xml version="1.0" encoding="UTF-8" standalone="no"?>
<svg
   xmlns:dc="http://purl.org/dc/elements/1.1/"
   xmlns:cc="http://creativecommons.org/ns#"
   xmlns:rdf="http://www.w3.org/1999/02/22-rdf-syntax-ns#"
   xmlns:svg="http://www.w3.org/2000/svg"
   xmlns="http://www.w3.org/2000/svg"
   viewBox="0 0 215.87466 225.98534"
   height="225.98534"
   width="215.87466"
   xml:space="preserve"
   id="svg2"
   version="1.1"><metadata
     id="metadata8"><rdf:RDF><cc:Work
         rdf:about=""><dc:format>image/svg+xml</dc:format><dc:type
           rdf:resource="http://purl.org/dc/dcmitype/StillImage" /></cc:Work></rdf:RDF></metadata><defs
     id="defs6"><clipPath
       id="clipPath18"
       clipPathUnits="userSpaceOnUse"><path
         id="path16"
         d="M 0,169.489 H 161.906 V 0 H 0 Z" /></clipPath></defs><g
     transform="matrix(1.3333333,0,0,-1.3333333,0,225.98533)"
     id="g10"><g
       id="g12"><g
         clip-path="url(#clipPath18)"
         id="g14"><g
           transform="translate(127.7477,83.9003)"
           id="g20"><path
             id="path22"
             style="fill:#000000;fill-opacity:1;fill-rule:nonzero;stroke:none"
             d="m 0,0 c 2.228,6.397 3.882,12.986 5.983,19.426 0.129,0.397 0.27,0.81 0.573,1.097 0.586,0.556 1.537,0.426 2.286,0.125 2.63,-1.055 4.33,-3.601 5.63,-6.119 1.179,-2.284 2.156,-5.102 0.874,-7.33 C 13.828,4.561 10.102,3.838 9.482,0.546 8.507,-4.644 9.414,-10.765 9.994,-16.253 c 1.612,-15.272 3.132,-30.248 1.218,-45.523 -0.443,-3.538 -1.49,-6.833 -2.656,-10.094 -0.173,-0.482 -0.236,-0.601 -0.74,-0.359 -50.913,24.35 -64.551,1.421 -109.992,3.843 -4.692,0.25 -6.354,3.92 -5.753,7.945 0.046,0.301 0.191,0.569 0.299,0.837 2.339,5.777 4.656,11.13 7.088,17.08 0.556,1.362 2.565,5.103 2.472,6.519 -0.567,8.621 -2.306,14.343 -7.085,21.127 -2.063,2.928 -3.938,4.098 -5.668,7.587 -1.361,2.746 -2.745,7.198 -1.814,10.602 0.167,0.613 0.578,0.788 0.932,1.331 0.354,0.543 0.742,1.175 1.039,1.857 2.552,5.859 4.983,11.671 9.215,16.523 0.631,0.723 1.323,1.443 2.282,1.043 6.391,-2.671 7.848,-9.312 9.668,-15.222 0.734,-2.385 1.341,-3.899 2.004,-5.966 1.143,-3.562 2.261,-6.812 3.237,-10.36 0.569,-2.066 0.912,-4.3 1.508,-6.321 0.729,-2.477 1.767,-4.675 2.674,-7.045 0.15,-0.39 0.353,-0.717 0.529,-1.087 0.684,-1.44 1.396,-2.886 2.132,-4.293 0.566,-1.084 1.281,-2.025 1.983,-3.014 0.146,-0.204 0.281,-0.397 0.481,-0.557 1.153,-0.925 2.217,-1.909 3.42,-2.795 0.938,-0.69 1.886,-1.063 3.08,-0.975 1.642,0.121 3.012,0.466 4.532,1.212 1.092,0.536 1.766,1.657 2.903,2.282 2.479,1.361 3.993,1.088 6.276,-0.969 2.282,-2.057 4.142,-5.996 6.428,-8.123 3.215,-2.992 5.017,-0.374 7.641,1.837 0.064,0.054 0.189,0.081 0.336,0.191 0.147,0.11 0.396,0.366 0.56,0.58 0.36,0.472 0.851,0.942 1.255,1.407 0.405,0.465 0.896,1.04 1.319,1.444 0.857,0.817 1.594,1.592 2.407,2.414 0.481,0.485 0.918,0.979 1.348,1.526 0.028,0.036 0.021,0.062 0.08,0.15 0.06,0.089 0.212,0.286 0.305,0.417 2.776,3.937 5.033,8.282 6.637,12.749 0.812,2.26 1.628,4.006 2.064,6.289 0.721,3.783 1.019,6.959 0.325,10.893 -0.604,3.417 -0.947,7.042 0.016,10.559 0.58,2.109 1.137,4.301 1.624,6.444 0.671,2.964 1.26,5.809 1.138,8.87 -0.036,0.919 -0.102,1.864 -0.228,2.79 -0.064,0.465 -0.443,0.727 -0.549,1.228 -0.107,0.5 -0.26,1.178 -0.394,1.698 -0.049,0.194 -0.212,0.422 -0.268,0.557 -0.058,0.136 -0.049,0.232 -0.082,0.302 -0.032,0.071 -0.022,0.094 -0.035,0.118 -0.238,0.413 -0.493,0.847 -0.785,1.2 -0.923,1.114 -1.913,2.199 -2.852,3.26 -0.168,0.191 -0.43,0.341 -0.547,0.431 -0.116,0.091 -0.107,0.042 -0.129,0.058 -0.348,0.241 -0.691,0.467 -0.978,0.741 -0.703,0.668 -1.349,0.998 -2.304,1.14 -0.201,0.03 -0.336,0.19 -0.481,0.328 -1.145,1.082 -2.541,1.641 -4.043,1.878 -2.28,0.36 -4.417,0.48 -6.679,0.476 -1.023,-0.002 -2.035,0.009 -3.03,-0.162 -0.995,-0.171 -1.789,-0.805 -2.658,-1.219 -0.869,-0.415 -1.676,-0.392 -2.486,-0.98 -0.809,-0.588 -1.501,-1.488 -2.311,-2.157 -2.257,-1.864 -4.114,-4.073 -5.924,-6.369 -0.138,-0.174 -0.289,-0.305 -0.399,-0.501 -0.926,-1.647 -1.998,-3.196 -2.44,-5.068 -1.158,-4.907 -1.151,-9.582 -0.951,-14.669 0.086,-2.197 1.275,-4.384 1.955,-6.578 0.679,-2.195 1.574,-4.792 2.488,-6.885 0.915,-2.093 2.025,-2.957 4.222,-2.203 6.162,2.116 5.841,5.828 5.214,11.877 -0.098,0.947 -0.233,1.908 -0.626,2.776 -0.368,0.812 -0.947,1.512 -1.35,2.307 -1.044,2.066 -0.799,4.519 -0.528,6.817 0.298,2.519 0.722,5.287 2.653,6.932 2.387,2.034 6.253,1.371 8.584,-0.727 2.331,-2.099 3.426,-5.233 4.111,-8.294 0.91,-4.064 1.258,-8.253 1.03,-12.411 -0.375,-6.857 -2.828,-10.835 -9.65,-11.72 -1.857,-0.241 -2.818,-0.772 -4.176,-1.916 -2.305,-1.941 -3.84,-4.495 -6.459,-6.171 -3.015,-1.929 -6.707,-1.808 -9.82,-0.108 -3.762,2.056 -6.537,4.191 -8.868,7.867 -2.071,3.267 -3.321,7.088 -4.453,10.931 -1.587,5.387 -2.098,11.106 -2.001,16.757 0.098,5.65 0.948,11.096 2.518,16.481 0.751,2.573 1.764,4.867 2.776,7.319 0.468,1.136 0.942,2.123 1.766,3.124 0.119,0.145 0.146,1.013 0.212,1.179 0.887,2.258 2.41,4.058 3.962,5.746 1.886,2.052 3.707,3.598 6.046,4.999 0.223,0.133 0.432,0.257 0.656,0.374 1.959,1.026 3.973,1.669 6.185,1.638 4.112,-0.057 8.048,-0.533 12.042,-1.442 1.104,-0.252 2.033,-0.99 3.092,-1.365 1.059,-0.375 2.168,-0.505 3.231,-0.859 1.062,-0.355 1.89,-1.003 2.939,-1.423 2.491,-0.995 4.743,-1.293 7.188,-2.771 2.445,-1.478 5.316,-2.694 7.467,-4.999 2.768,-2.967 4.946,-6.034 6.053,-10.231 1.642,-6.22 1.477,-12.82 1.381,-19.357 -0.04,-2.825 0.354,-5.741 0.471,-8.666 0.116,-2.926 -0.506,-5.871 0.612,-8.783 1.118,-2.911 3.384,-4.718 6.49,-5.164 0.427,-0.062 0.76,0.341 1.003,0.476 0.244,0.136 0.39,0.089 0.53,0.186 0.554,0.385 0.934,0.613 1.317,1.179 0.162,0.24 0.3,0.39 0.64,0.526 0.34,0.135 0.655,0.61 0.909,0.9" /></g></g></g></g></svg>